{
  "streams": [
    {
      "index": 0,
      "codec_name": "dvvideo",
      "codec_long_name": "DV (Digital Video)",
      "codec_type": "video",
      "codec_time_base": "1/25",
      "codec_tag_string": "[0][0][0][0]",
      "codec_tag": "0x0000",
      "width": 720,
      "height": 576,
      "coded_width": 720,
      "coded_height": 576,
      "has_b_frames": 0,
      "sample_aspect_ratio": "16:15",
      "display_aspect_ratio": "4:3",
      "pix_fmt": "yuv422p",
      "level": -99,
      "chroma_location": "topleft",
      "refs": 1,
      "r_frame_rate": "25/1",
      "avg_frame_rate": "25/1",
      "time_base": "1/25",
      "start_pts": 0,
      "start_time": "0.000000",
      "duration_ts": 4646,
      "duration": "185.840000",
      "bit_rate": "25000000",
      "disposition": {
        "default": 0,
        "dub": 0,
        "original": 0,
        "comment": 0,
        "lyrics": 0,
        "karaoke": 0,
        "forced": 0,
        "hearing_impaired": 0,
        "visual_impaired": 0,
        "clean_effects": 0,
        "attached_pic": 0,
        "timed_thumbnails": 0
      }
    },
    {
      "index": 1,
      "codec_name": "pcm_s16le",
      "codec_long_name": "PCM signed 16-bit little-endian",
      "codec_type": "audio",
      "codec_time_base": "1/48000",
      "codec_tag_string": "[0][0][0][0]",
      "codec_tag": "0x0000",
      "sample_fmt": "s16",
      "sample_rate": "48000",
      "channels": 2,
      "channel_layout": "stereo",
      "bits_per_sample": 16,
      "r_frame_rate": "0/0",
      "avg_frame_rate": "0/0",
      "time_base": "1/30000",
      "start_pts": 0,
      "start_time": "0.000000",
      "duration_ts": 5575200,
      "duration": "185.840000",
      "bit_rate": "1536000",
      "disposition": {
        "default": 0,
        "dub": 0,
        "original": 0,
        "comment": 0,
        "lyrics": 0,
        "karaoke": 0,
        "forced": 0,
        "hearing_impaired": 0,
        "visual_impaired": 0,
        "clean_effects": 0,
        "attached_pic": 0,
        "timed_thumbnails": 0
      }
    },
    {
      "index": 2,
      "codec_name": "pcm_s16le",
      "codec_long_name": "PCM signed 16-bit little-endian",
      "codec_type": "audio",
      "codec_time_base": "1/48000",
      "codec_tag_string": "[0][0][0][0]",
      "codec_tag": "0x0000",
      "sample_fmt": "s16",
      "sample_rate": "48000",
      "channels": 2,
      "channel_layout": "stereo",
      "bits_per_sample": 16,
      "r_frame_rate": "0/0",
      "avg_frame_rate": "0/0",
      "time_base": "1/30000",
      "start_pts": 0,
      "start_time": "0.000000",
      "duration_ts": 5575200,
      "duration": "185.840000",
      "bit_rate": "1536000",
      "disposition": {
        "default": 0,
        "dub": 0,
        "original": 0,
        "comment": 0,
        "lyrics": 0,
        "karaoke": 0,
        "forced": 0,
        "hearing_impaired": 0,
        "visual_impaired": 0,
        "clean_effects": 0,
        "attached_pic": 0,
        "timed_thumbnails": 0
      }
    }
  ],
  "format": {
    "filename": "/core/programs/processed/svt_hbg_2020-02-19_070459_070801.dv",
    "nb_streams": 3,
    "nb_programs": 0,
    "format_name": "dv",
    "format_long_name": "DV (Digital Video)",
    "start_time": "0.000000",
    "duration": "185.840000",
    "size": "1338048000",
    "bit_rate": "57600000",
    "probe_score": 75,
    "tags": {
      "timecode": "00:00:00:00"
    }
  }
}